<svg xmlns="http://www.w3.org/2000/svg" width="24" height="24" viewBox="0 0 24 24" fill="none" stroke="currentColor" stroke-width="2" stroke-linecap="round" stroke-linejoin="round" class="lucide lucide-car-front"><path d="m21 8-2 2H5L3 8a2 2 0 0 0-2 2v10a2 2 0 0 0 2 2h18a2 2 0 0 0 2-2V10a2 2 0 0 0-2-2Z"/><path d="M14.5 6.5a2.2 2.2 0 0 1-2.17-2.17V4h2.34a2.2 2.2 0 0 1 2.17 2.17v.34Z"/><path d="M9.5 6.5a2.2 2.2 0 0 0 2.17-2.17V4H9.33a2.2 2.2 0 0 0-2.17 2.17v.34Z"/><circle cx="7.5" cy="17.5" r=".5" fill="currentColor"/><circle cx="16.5" cy="17.5" r=".5" fill="currentColor"/></svg>
